<mxfile host="app.diagrams.net" agent="Mozilla/5.0 (Windows NT 10.0; Win64; x64) AppleWebKit/537.36 (KHTML, like Gecko) Chrome/129.0.0.0 Safari/537.36" version="24.7.17">
  <diagram name="P치gina-1" id="V2jJNAhJ3phH-gpO1FPq">
    <mxGraphModel dx="1434" dy="780" grid="1" gridSize="10" guides="1" tooltips="1" connect="1" arrows="1" fold="1" page="1" pageScale="1" pageWidth="827" pageHeight="1169" math="0" shadow="0">
      <root>
        <mxCell id="0" />
        <mxCell id="1" parent="0" />
        <mxCell id="TGvYLTjihiUAuHm6UCDE-17" value="" style="rounded=0;whiteSpace=wrap;html=1;" vertex="1" parent="1">
          <mxGeometry x="194" y="100" width="525" height="400" as="geometry" />
        </mxCell>
        <mxCell id="TGvYLTjihiUAuHm6UCDE-18" value="Usu치rio" style="shape=umlActor;verticalLabelPosition=bottom;verticalAlign=top;html=1;outlineConnect=0;" vertex="1" parent="1">
          <mxGeometry x="109" y="360" width="30" height="60" as="geometry" />
        </mxCell>
        <mxCell id="TGvYLTjihiUAuHm6UCDE-19" value="Registrar Produto" style="ellipse;whiteSpace=wrap;html=1;" vertex="1" parent="1">
          <mxGeometry x="299" y="355" width="140" height="70" as="geometry" />
        </mxCell>
        <mxCell id="TGvYLTjihiUAuHm6UCDE-20" value="" style="endArrow=none;html=1;rounded=0;entryX=0;entryY=0.5;entryDx=0;entryDy=0;exitX=0.5;exitY=0.5;exitDx=0;exitDy=0;exitPerimeter=0;" edge="1" parent="1" source="TGvYLTjihiUAuHm6UCDE-18" target="TGvYLTjihiUAuHm6UCDE-19">
          <mxGeometry width="50" height="50" relative="1" as="geometry">
            <mxPoint x="129" y="390" as="sourcePoint" />
            <mxPoint x="179" y="340" as="targetPoint" />
          </mxGeometry>
        </mxCell>
        <mxCell id="TGvYLTjihiUAuHm6UCDE-21" value="Registrar Produto" style="text;html=1;align=center;verticalAlign=middle;whiteSpace=wrap;rounded=0;" vertex="1" parent="1">
          <mxGeometry x="369" y="110" width="140" height="30" as="geometry" />
        </mxCell>
        <mxCell id="TGvYLTjihiUAuHm6UCDE-22" value="Verifica se o produto j치 existe no BD" style="ellipse;whiteSpace=wrap;html=1;" vertex="1" parent="1">
          <mxGeometry x="569" y="360" width="140" height="70" as="geometry" />
        </mxCell>
        <mxCell id="TGvYLTjihiUAuHm6UCDE-23" value="&amp;lt;&amp;lt;Includes&amp;gt;&amp;gt;" style="endArrow=block;dashed=1;html=1;rounded=0;entryX=0;entryY=0.5;entryDx=0;entryDy=0;endFill=0;" edge="1" parent="1" target="TGvYLTjihiUAuHm6UCDE-22">
          <mxGeometry width="50" height="50" relative="1" as="geometry">
            <mxPoint x="439" y="393" as="sourcePoint" />
            <mxPoint x="484" y="347" as="targetPoint" />
          </mxGeometry>
        </mxCell>
        <mxCell id="TGvYLTjihiUAuHm6UCDE-24" value="Retorna uma mensagem de erro caso o produto j치 exista" style="ellipse;whiteSpace=wrap;html=1;" vertex="1" parent="1">
          <mxGeometry x="289" y="200" width="160" height="70" as="geometry" />
        </mxCell>
        <mxCell id="TGvYLTjihiUAuHm6UCDE-25" value="&amp;lt;&amp;lt;Excludes&amp;gt;&amp;gt;" style="endArrow=block;dashed=1;html=1;rounded=0;entryX=0.5;entryY=0;entryDx=0;entryDy=0;endFill=0;exitX=0.5;exitY=1;exitDx=0;exitDy=0;" edge="1" parent="1" source="TGvYLTjihiUAuHm6UCDE-24">
          <mxGeometry width="50" height="50" relative="1" as="geometry">
            <mxPoint x="298" y="300" as="sourcePoint" />
            <mxPoint x="368" y="355" as="targetPoint" />
          </mxGeometry>
        </mxCell>
      </root>
    </mxGraphModel>
  </diagram>
</mxfile>
